<svg id="visual" viewBox="0 0 900 600" width="900" height="600" xmlns="http://www.w3.org/2000/svg" xmlns:xlink="http://www.w3.org/1999/xlink" version="1.1"><rect x="0" y="0" width="900" height="600" fill="#001220"></rect><path d="M849 600L851 583.3C853 566.7 857 533.3 856.2 500C855.3 466.7 849.7 433.3 850.3 400C851 366.7 858 333.3 860 300C862 266.7 859 233.3 858.5 200C858 166.7 860 133.3 859.5 100C859 66.7 856 33.3 854.5 16.7L853 0L900 0L900 16.7C900 33.3 900 66.7 900 100C900 133.3 900 166.7 900 200C900 233.3 900 266.7 900 300C900 333.3 900 366.7 900 400C900 433.3 900 466.7 900 500C900 533.3 900 566.7 900 583.3L900 600Z" fill="#ffad41"></path><path d="M862 600L864.3 583.3C866.7 566.7 871.3 533.3 870.5 500C869.7 466.7 863.3 433.3 860.8 400C858.3 366.7 859.7 333.3 862 300C864.3 266.7 867.7 233.3 867.5 200C867.3 166.7 863.7 133.3 862.3 100C861 66.7 862 33.3 862.5 16.7L863 0L900 0L900 16.7C900 33.3 900 66.7 900 100C900 133.3 900 166.7 900 200C900 233.3 900 266.7 900 300C900 333.3 900 366.7 900 400C900 433.3 900 466.7 900 500C900 533.3 900 566.7 900 583.3L900 600Z" fill="#fe9810"></path></svg>