<svg id="visual" viewBox="0 0 900 600" width="900" height="600" xmlns="http://www.w3.org/2000/svg" xmlns:xlink="http://www.w3.org/1999/xlink" version="1.1"><rect x="0" y="0" width="900" height="600" fill="#001220"></rect><path d="M795 600L793.2 585.7C791.3 571.3 787.7 542.7 791.3 514.2C795 485.7 806 457.3 810.7 428.8C815.3 400.3 813.7 371.7 812.8 343C812 314.3 812 285.7 808.8 257C805.7 228.3 799.3 199.7 801 171.2C802.7 142.7 812.3 114.3 816.3 85.8C820.3 57.3 818.7 28.7 817.8 14.3L817 0L900 0L900 14.3C900 28.7 900 57.3 900 85.8C900 114.3 900 142.7 900 171.2C900 199.7 900 228.3 900 257C900 285.7 900 314.3 900 343C900 371.7 900 400.3 900 428.8C900 457.3 900 485.7 900 514.2C900 542.7 900 571.3 900 585.7L900 600Z" fill="#ffad41"></path><path d="M834 600L836 585.7C838 571.3 842 542.7 842.5 514.2C843 485.7 840 457.3 837.5 428.8C835 400.3 833 371.7 832 343C831 314.3 831 285.7 829.8 257C828.7 228.3 826.3 199.7 825.3 171.2C824.3 142.7 824.7 114.3 824.8 85.8C825 57.3 825 28.7 825 14.3L825 0L900 0L900 14.3C900 28.7 900 57.3 900 85.8C900 114.3 900 142.7 900 171.2C900 199.7 900 228.3 900 257C900 285.7 900 314.3 900 343C900 371.7 900 400.3 900 428.8C900 457.3 900 485.7 900 514.2C900 542.7 900 571.3 900 585.7L900 600Z" fill="#fe9810"></path></svg>