<?xml version="1.0" standalone="no"?>
<svg xmlns:xlink="http://www.w3.org/1999/xlink" id="wave" style="transform:rotate(180deg); transition: 0.3s" viewBox="0 0 1440 100" version="1.1" xmlns="http://www.w3.org/2000/svg"><defs><linearGradient id="sw-gradient-0" x1="0" x2="0" y1="1" y2="0"><stop stop-color="rgba(255, 173, 65, 1)" offset="0%"/><stop stop-color="rgba(255, 173, 65, 1)" offset="100%"/></linearGradient></defs><path style="transform:translate(0, 0px); opacity:1" fill="url(#sw-gradient-0)" d="M0,60L26.7,50C53.3,40,107,20,160,16.7C213.3,13,267,27,320,30C373.3,33,427,27,480,28.3C533.3,30,587,40,640,41.7C693.3,43,747,37,800,31.7C853.3,27,907,23,960,25C1013.3,27,1067,33,1120,30C1173.3,27,1227,13,1280,18.3C1333.3,23,1387,47,1440,48.3C1493.3,50,1547,30,1600,20C1653.3,10,1707,10,1760,10C1813.3,10,1867,10,1920,20C1973.3,30,2027,50,2080,48.3C2133.3,47,2187,23,2240,23.3C2293.3,23,2347,47,2400,60C2453.3,73,2507,77,2560,80C2613.3,83,2667,87,2720,81.7C2773.3,77,2827,63,2880,61.7C2933.3,60,2987,70,3040,68.3C3093.3,67,3147,53,3200,43.3C3253.3,33,3307,27,3360,26.7C3413.3,27,3467,33,3520,36.7C3573.3,40,3627,40,3680,41.7C3733.3,43,3787,47,3813,48.3L3840,50L3840,100L3813.3,100C3786.7,100,3733,100,3680,100C3626.7,100,3573,100,3520,100C3466.7,100,3413,100,3360,100C3306.7,100,3253,100,3200,100C3146.7,100,3093,100,3040,100C2986.7,100,2933,100,2880,100C2826.7,100,2773,100,2720,100C2666.7,100,2613,100,2560,100C2506.7,100,2453,100,2400,100C2346.7,100,2293,100,2240,100C2186.7,100,2133,100,2080,100C2026.7,100,1973,100,1920,100C1866.7,100,1813,100,1760,100C1706.7,100,1653,100,1600,100C1546.7,100,1493,100,1440,100C1386.7,100,1333,100,1280,100C1226.7,100,1173,100,1120,100C1066.7,100,1013,100,960,100C906.7,100,853,100,800,100C746.7,100,693,100,640,100C586.7,100,533,100,480,100C426.7,100,373,100,320,100C266.7,100,213,100,160,100C106.7,100,53,100,27,100L0,100Z"/><defs><linearGradient id="sw-gradient-1" x1="0" x2="0" y1="1" y2="0"><stop stop-color="rgba(254, 152, 16, 1)" offset="0%"/><stop stop-color="rgba(254, 152, 16, 1)" offset="100%"/></linearGradient></defs><path style="transform:translate(0, 50px); opacity:0.9" fill="url(#sw-gradient-1)" d="M0,20L26.7,28.3C53.3,37,107,53,160,61.7C213.3,70,267,70,320,58.3C373.3,47,427,23,480,20C533.3,17,587,33,640,46.7C693.3,60,747,70,800,66.7C853.3,63,907,47,960,35C1013.3,23,1067,17,1120,11.7C1173.3,7,1227,3,1280,13.3C1333.3,23,1387,47,1440,56.7C1493.3,67,1547,63,1600,66.7C1653.3,70,1707,80,1760,78.3C1813.3,77,1867,63,1920,60C1973.3,57,2027,63,2080,68.3C2133.3,73,2187,77,2240,73.3C2293.3,70,2347,60,2400,58.3C2453.3,57,2507,63,2560,68.3C2613.3,73,2667,77,2720,71.7C2773.3,67,2827,53,2880,45C2933.3,37,2987,33,3040,26.7C3093.3,20,3147,10,3200,10C3253.3,10,3307,20,3360,31.7C3413.3,43,3467,57,3520,60C3573.3,63,3627,57,3680,55C3733.3,53,3787,57,3813,58.3L3840,60L3840,100L3813.3,100C3786.7,100,3733,100,3680,100C3626.7,100,3573,100,3520,100C3466.7,100,3413,100,3360,100C3306.7,100,3253,100,3200,100C3146.7,100,3093,100,3040,100C2986.7,100,2933,100,2880,100C2826.7,100,2773,100,2720,100C2666.7,100,2613,100,2560,100C2506.7,100,2453,100,2400,100C2346.7,100,2293,100,2240,100C2186.7,100,2133,100,2080,100C2026.7,100,1973,100,1920,100C1866.7,100,1813,100,1760,100C1706.7,100,1653,100,1600,100C1546.7,100,1493,100,1440,100C1386.7,100,1333,100,1280,100C1226.7,100,1173,100,1120,100C1066.7,100,1013,100,960,100C906.7,100,853,100,800,100C746.7,100,693,100,640,100C586.7,100,533,100,480,100C426.7,100,373,100,320,100C266.7,100,213,100,160,100C106.7,100,53,100,27,100L0,100Z"/></svg>