<svg id="visual" viewBox="0 0 540 2000" width="540" height="2000" xmlns="http://www.w3.org/2000/svg" xmlns:xlink="http://www.w3.org/1999/xlink" version="1.1"><path d="M494 2000L490.3 1963C486.7 1926 479.3 1852 480.8 1778C482.3 1704 492.7 1630 495 1555.8C497.3 1481.7 491.7 1407.3 491.3 1333.2C491 1259 496 1185 496 1111C496 1037 491 963 487.2 889C483.3 815 480.7 741 481.7 666.8C482.7 592.7 487.3 518.3 486.8 444.2C486.3 370 480.7 296 480.8 222C481 148 487 74 490 37L493 0L540 0L540 37C540 74 540 148 540 222C540 296 540 370 540 444.2C540 518.3 540 592.7 540 666.8C540 741 540 815 540 889C540 963 540 1037 540 1111C540 1185 540 1259 540 1333.2C540 1407.3 540 1481.7 540 1555.8C540 1630 540 1704 540 1778C540 1852 540 1926 540 1963L540 2000Z" fill="#ffad41"></path><path d="M508 2000L507.5 1963C507 1926 506 1852 504.2 1778C502.3 1704 499.7 1630 498.8 1555.8C498 1481.7 499 1407.3 500.5 1333.2C502 1259 504 1185 503.7 1111C503.3 1037 500.7 963 502.2 889C503.7 815 509.3 741 509.8 666.8C510.3 592.7 505.7 518.3 504 444.2C502.3 370 503.7 296 504.2 222C504.7 148 504.3 74 504.2 37L504 0L540 0L540 37C540 74 540 148 540 222C540 296 540 370 540 444.2C540 518.3 540 592.7 540 666.8C540 741 540 815 540 889C540 963 540 1037 540 1111C540 1185 540 1259 540 1333.2C540 1407.3 540 1481.7 540 1555.8C540 1630 540 1704 540 1778C540 1852 540 1926 540 1963L540 2000Z" fill="#fe9810"></path></svg>