<svg id="visual" viewBox="0 0 540 1080" width="540" height="1080" xmlns="http://www.w3.org/2000/svg" xmlns:xlink="http://www.w3.org/1999/xlink" version="1.1"><path d="M494 1080L490.3 1060C486.7 1040 479.3 1000 480.8 960C482.3 920 492.7 880 495 840C497.3 800 491.7 760 491.3 720C491 680 496 640 496 600C496 560 491 520 487.2 480C483.3 440 480.7 400 481.7 360C482.7 320 487.3 280 486.8 240C486.3 200 480.7 160 480.8 120C481 80 487 40 490 20L493 0L540 0L540 20C540 40 540 80 540 120C540 160 540 200 540 240C540 280 540 320 540 360C540 400 540 440 540 480C540 520 540 560 540 600C540 640 540 680 540 720C540 760 540 800 540 840C540 880 540 920 540 960C540 1000 540 1040 540 1060L540 1080Z" fill="#ffad41"></path><path d="M508 1080L507.5 1060C507 1040 506 1000 504.2 960C502.3 920 499.7 880 498.8 840C498 800 499 760 500.5 720C502 680 504 640 503.7 600C503.3 560 500.7 520 502.2 480C503.7 440 509.3 400 509.8 360C510.3 320 505.7 280 504 240C502.3 200 503.7 160 504.2 120C504.7 80 504.3 40 504.2 20L504 0L540 0L540 20C540 40 540 80 540 120C540 160 540 200 540 240C540 280 540 320 540 360C540 400 540 440 540 480C540 520 540 560 540 600C540 640 540 680 540 720C540 760 540 800 540 840C540 880 540 920 540 960C540 1000 540 1040 540 1060L540 1080Z" fill="#fe9810"></path></svg>