<svg id="visual" viewBox="0 0 1920 1080" width="1920" height="1080" xmlns="http://www.w3.org/2000/svg" xmlns:xlink="http://www.w3.org/1999/xlink" version="1.1"><path d="M1847 1080L1837 1054.3C1827 1028.7 1807 977.3 1801.5 925.8C1796 874.3 1805 822.7 1814.3 771.2C1823.7 719.7 1833.3 668.3 1837.7 617C1842 565.7 1841 514.3 1837.2 463C1833.3 411.7 1826.7 360.3 1828.5 308.8C1830.3 257.3 1840.7 205.7 1836 154.2C1831.3 102.7 1811.7 51.3 1801.8 25.7L1792 0L1920 0L1920 25.7C1920 51.3 1920 102.7 1920 154.2C1920 205.7 1920 257.3 1920 308.8C1920 360.3 1920 411.7 1920 463C1920 514.3 1920 565.7 1920 617C1920 668.3 1920 719.7 1920 771.2C1920 822.7 1920 874.3 1920 925.8C1920 977.3 1920 1028.7 1920 1054.3L1920 1080Z" fill="#ffad41"></path><path d="M1870 1080L1864.8 1054.3C1859.7 1028.7 1849.3 977.3 1849.5 925.8C1849.7 874.3 1860.3 822.7 1865.8 771.2C1871.3 719.7 1871.7 668.3 1871.2 617C1870.7 565.7 1869.3 514.3 1866.5 463C1863.7 411.7 1859.3 360.3 1860.8 308.8C1862.3 257.3 1869.7 205.7 1871.8 154.2C1874 102.7 1871 51.3 1869.5 25.7L1868 0L1920 0L1920 25.7C1920 51.3 1920 102.7 1920 154.2C1920 205.7 1920 257.3 1920 308.8C1920 360.3 1920 411.7 1920 463C1920 514.3 1920 565.7 1920 617C1920 668.3 1920 719.7 1920 771.2C1920 822.7 1920 874.3 1920 925.8C1920 977.3 1920 1028.7 1920 1054.3L1920 1080Z" fill="#fe9810"></path></svg>